<?xml version="1.0" encoding="utf-8"?>
<svg version="1.1" id="Layer_1" xmlns="http://www.w3.org/2000/svg"
    xmlns:xlink="http://www.w3.org/1999/xlink" x="0px" y="0px" viewBox="0 0 122.88 110.55"
    style="enable-background:new 0 0 122.88 110.55" xml:space="preserve"><style type="text/css">.st0{fill-rule:evenodd;clip-rule:evenodd;fill:#050505;}</style>
    <g><path class="st0" d="M89.41,24.74l-0.03,0.1c-6.71-1.25-16.39-1.9-26.6-1.79c-10.32,0.12-21.24,1.01-30.24,2.86l-0.01-0.04 C24.69-11.04,99.77-5.77,89.41,24.74L89.41,24.74z M29.18,94.73c1.5,0,2.72,1.22,2.72,2.72c0,1.5-1.22,2.72-2.72,2.72 c-1.5,0-2.72-1.22-2.72-2.72C26.45,95.95,27.67,94.73,29.18,94.73L29.18,94.73z M94.76,94.73c1.5,0,2.72,1.22,2.72,2.72 c0,1.5-1.22,2.72-2.72,2.72c-1.5,0-2.72-1.22-2.72-2.72C92.04,95.95,93.26,94.73,94.76,94.73L94.76,94.73z M45.79,64.69 c-4.56,3.2-9.33,4.39-13.99,5.25l6.64,18.83h48.26l5.23-18.7c-4.14-0.42-8.02-0.75-11.05-2.35c-1.37-0.86-2.58-2.05-3.68-3.56 l-0.19-3.11c1.08-0.88,2.11-1.92,3-3.07c2-2.5,2.77-5.07,3.73-8.34c0.19-0.69,0.38-1.38,0.61-2.07c1.88-0.19,3.53-2.3,4.53-4.92 c0.54-1.46,0.96-3.11,1.08-4.57c0.15-1.54,0-2.96-0.54-3.92c-0.42-0.77-1.08-1.27-1.96-1.34c-0.07-0.77,0.28-2.39,0.75-4.12 c-6.35-1.14-15.58-1.73-25.4-1.62c-10.08,0.12-20.72,0.99-29.44,2.78l0.85,4.07c-0.65,1.08-0.81,2.77-0.61,4.57 c0.19,1.77,0.73,3.61,1.5,5.15c1,1.96,2.42,3.34,4.07,3.34c0.15,0.46,0.35,0.96,0.5,1.46c1.34,3.96,2.34,6.95,4.76,9.8 c0.69,0.85,1.46,1.61,2.27,2.3l-0.19,3.49C46.28,64.27,46.04,64.48,45.79,64.69L45.79,64.69z M24.1,71.37 C15.52,73.32,8,77.54,3.76,96.15L0,110.55h20.4V92.74c0-2.18,1.79-3.97,3.97-3.97h4.24C28.43,81.87,24.98,74.63,24.1,71.37 L24.1,71.37z M103.54,110.55h19.34l-3.97-15.47c-3.7-16.66-11.19-21.8-18.98-23.77c-0.79,3.26-3.21,10.97-3.34,17.45h2.99 c2.18,0,3.97,1.79,3.97,3.97V110.55L103.54,110.55z M53.33,13.34h16.22c0.38,0,0.69,0.31,0.69,0.69v3.74 c0,0.38-0.31,0.69-0.69,0.69H53.33c-0.38,0-0.69-0.31-0.69-0.69v-3.74C52.64,13.65,52.95,13.34,53.33,13.34L53.33,13.34z M74.58,62.28c-4.33,2.89-6.98,4.48-12.59,4.34c-5.46-0.08-8.31-1.93-12.67-4.69C49,80.15,75.03,81.23,74.58,62.28L74.58,62.28z M81.08,49.06c0.23-0.81,0.5-1.65,0.81-2.65c0.12-0.42,0.54-0.73,0.96-0.65c1.27,0.23,2.54-1.61,3.42-3.84 c0.5-1.34,0.88-2.8,1-4.11c0.12-1.23,0-2.3-0.35-2.96c-0.34-0.64-1.29-0.26-2-0.88c-3.64,9.65-35.36,14.01-48.34,0.73 c-0.46,0.73-0.54,2.04-0.38,3.5c0.19,1.54,0.65,3.23,1.34,4.57c0.81,1.57,1.84,2.65,2.88,2.38c0.42-0.12,0.88,0.12,1.04,0.54 c0.31,0.85,0.5,1.5,0.73,2.15C48.91,67.59,74.48,69.14,81.08,49.06L81.08,49.06z"/></g></svg>